<svg xmlns="http://www.w3.org/2000/svg" xmlns:svg="http://www.w3.org/2000/svg" id="svg2" width="186" height="186" version="1.1" viewBox="0 0 186 186"><title id="title30">U-Boot Logo</title><metadata id="metadata31"/><g id="layer1" transform="translate(0,0)"><rect id="rect31" width="186" height="186" x="0" y="0" fill="#000" fill-opacity="1" stroke="none" stroke-width="0"/><circle id="path835" cx="93" cy="93" r="93" fill="#046" fill-opacity="1" stroke="none" stroke-width="0"/><path id="path4136-6-6-1-6-3-5" fill="#fc8" fill-opacity="1" stroke="none" stroke-width="0" d="m 116,76 a 20,20 0 0 1 -20,-20 20,20 0 0 1 20,-20 v 11 a 9,9 0 0 0 -9,9 9,9 0 0 0 9,9 z"/><path id="path4136-6-6-1-6-3-5-1-9" fill="#fc8" fill-opacity="1" stroke="none" stroke-width="0" d="m 116,66 a 10,10 0 0 1 -10,-10 10,10 0 0 1 10,-10 v 1 a 9,9 0 0 0 -9,9 9,9 0 0 0 9,9 z"/><ellipse id="path4136-6-6-1-6-3-5-1-2" cx="116" cy="41.5" fill="#d95" fill-opacity="1" stroke="none" stroke-width="0" rx="4" ry="5.5"/><circle id="path4352" cx="86" cy="66" r="10" fill="#d95" fill-opacity="1" stroke="none" stroke-width="0"/><circle id="path4352-1" cx="126" cy="66" r="10" fill="#d95" fill-opacity="1" stroke="none" stroke-width="0"/><rect id="rect4399" width="39" height="20" x="86.5" y="56" fill="#d95" fill-opacity="1" stroke="none" stroke-width="0"/><rect id="rect4660" width="60" height="9.5" x="76" y="66.5" fill="#d95" fill-opacity="1" stroke="none" stroke-width="0"/><circle id="path4549-5" cx="36" cy="81" r="15" fill="#d95" fill-opacity="1" stroke="none" stroke-width="0"/><circle id="path4549-5-5" cx="36" cy="121" r="15" fill="#d95" fill-opacity="1" stroke="none" stroke-width="0"/><ellipse id="path4136-6-6" cx="15" cy="91" fill="#fc8" fill-opacity="1" stroke="#000" stroke-width="0" rx="4" ry="10"/><ellipse id="path4136-6-6-1" cx="15" cy="111" fill="#fc8" fill-opacity="1" stroke="#000" stroke-width="0" rx="4" ry="10"/><rect id="rect4213" width="65" height="4" x="11" y="99" fill="#d95" fill-opacity="1" stroke="#000" stroke-width="0"/><ellipse id="path4136" cx="100.5" cy="100.5" fill="#fc8" fill-opacity="1" stroke="#000" stroke-width="0" rx="74.5" ry="34.5"/><ellipse id="path4416" cx="70" cy="95.5" fill="#d95" fill-opacity="1" stroke="none" stroke-width="0" rx="15" ry="12.5"/><ellipse id="path4416-9" cx="70" cy="95.5" fill="#fc8" fill-opacity="1" stroke="none" stroke-width="0" rx="14" ry="11.5"/><ellipse id="path4416-0" cx="70" cy="95.5" fill="#d95" fill-opacity="1" stroke="none" stroke-width="0" rx="11" ry="8.5"/><ellipse id="path4416-94" cx="110" cy="95.5" fill="#d95" fill-opacity="1" stroke="none" stroke-width="0" rx="15" ry="12.5"/><ellipse id="path4416-9-1" cx="110" cy="95.5" fill="#fc8" fill-opacity="1" stroke="none" stroke-width="0" rx="14" ry="11.5"/><ellipse id="path4416-0-1" cx="110" cy="95.5" fill="#d95" fill-opacity="1" stroke="none" stroke-width="0" rx="11" ry="8.5"/><ellipse id="path4416-94-2" cx="150" cy="95.5" fill="#d95" fill-opacity="1" stroke="none" stroke-width="0" rx="15" ry="12.5"/><ellipse id="path4416-9-1-2" cx="150" cy="95.5" fill="#fc8" fill-opacity="1" stroke="none" stroke-width="0" rx="14" ry="11.5"/><ellipse id="path4416-0-1-9" cx="150" cy="95.5" fill="#d95" fill-opacity="1" stroke="none" stroke-width="0" rx="11" ry="8.5"/></g></svg>